{
  "accessors": [
    {
      "bufferView": 2,
      "componentType": 5126,
      "count": 35195,
      "max": [
        1.812337875366211,
        0.019999999552965164,
        1.715861201286316
      ],
      "min": [
        -2.013237714767456,
        -6.572608470916748,
        -0.9235987663269043
      ],
      "type": "VEC3"
    },
    {
      "bufferView": 2,
      "byteOffset": 422340,
      "componentType": 5126,
      "count": 35195,
      "max": [
        1.0,
        1.0,
        1.0
      ],
      "min": [
        -1.0,
        -1.0,
        -1.0
      ],
      "type": "VEC3"
    },
    {
      "bufferView": 3,
      "componentType": 5126,
      "count": 35195,
      "max": [
        1.0,
        1.0,
        1.0,
        1.0
      ],
      "min": [
        -1.0,
        -1.0,
        -1.0,
        -1.0
      ],
      "type": "VEC4"
    },
    {
      "bufferView": 1,
      "componentType": 5126,
      "count": 35195,
      "max": [
        0.991782546043396,
        0.9964264035224915
      ],
      "min": [
        0.004259824752807617,
        0.003364473581314087
      ],
      "type": "VEC2"
    },
    {
      "bufferView": 0,
      "componentType": 5125,
      "count": 117888,
      "type": "SCALAR"
    }
  ],
  "asset": {
    "extras": {
      "author": "tonken (https://sketchfab.com/tonken)",
      "license": "CC-BY-4.0 (http://creativecommons.org/licenses/by/4.0/)",
      "source": "https://sketchfab.com/3d-models/flanged-maces-7b4e2fc9573c4868bbe0dfdaad6df633",
      "title": "Flanged Maces"
    },
    "generator": "Sketchfab-12.63.0",
    "version": "2.0"
  },
  "bufferViews": [
    {
      "buffer": 0,
      "byteLength": 471552,
      "name": "floatBufferViews",
      "target": 34963
    },
    {
      "buffer": 0,
      "byteLength": 281560,
      "byteOffset": 471552,
      "byteStride": 8,
      "name": "floatBufferViews",
      "target": 34962
    },
    {
      "buffer": 0,
      "byteLength": 844680,
      "byteOffset": 753112,
      "byteStride": 12,
      "name": "floatBufferViews",
      "target": 34962
    },
    {
      "buffer": 0,
      "byteLength": 563120,
      "byteOffset": 1597792,
      "byteStride": 16,
      "name": "floatBufferViews",
      "target": 34962
    }
  ],
  "buffers": [
    {
      "byteLength": 2160912,
      "uri": "scene.bin"
    }
  ],
  "images": [
    {
      "uri": "textures/Base_baseColor.png"
    },
    {
      "uri": "textures/Base_metallicRoughness.png"
    },
    {
      "uri": "textures/Base_normal.png"
    }
  ],
  "materials": [
    {
      "doubleSided": true,
      "name": "Base",
      "normalTexture": {
        "index": 2
      },
      "occlusionTexture": {
        "index": 1
      },
      "pbrMetallicRoughness": {
        "baseColorTexture": {
          "index": 0
        },
        "metallicRoughnessTexture": {
          "index": 1
        }
      }
    }
  ],
  "meshes": [
    {
      "name": "Flanged_Mace_01_LR_Base_0",
      "primitives": [
        {
          "attributes": {
            "NORMAL": 1,
            "POSITION": 0,
            "TANGENT": 2,
            "TEXCOORD_0": 3
          },
          "indices": 4,
          "material": 0,
          "mode": 4
        }
      ]
    }
  ],
  "nodes": [
    {
      "children": [
        1
      ],
      "matrix": [
        1.0,
        0.0,
        0.0,
        0.0,
        0.0,
        2.220446049250313e-16,
        -1.0,
        0.0,
        0.0,
        1.0,
        2.220446049250313e-16,
        0.0,
        0.0,
        0.0,
        0.0,
        1.0
      ],
      "name": "Sketchfab_model"
    },
    {
      "children": [
        2
      ],
      "matrix": [
        1.0,
        0.0,
        0.0,
        0.0,
        0.0,
        0.0,
        1.0,
        0.0,
        0.0,
        -1.0,
        0.0,
        0.0,
        0.0,
        0.0,
        0.0,
        1.0
      ],
      "name": "7c4cfaa90af544b084948526954bf9e3.fbx"
    },
    {
      "children": [
        3
      ],
      "name": "RootNode"
    },
    {
      "children": [
        4
      ],
      "matrix": [
        100.0,
        1.935246118530075e-15,
        -8.449408006900037e-17,
        0.0,
        8.449553336992738e-17,
        -8.715588102546779,
        -99.61946094086184,
        0.0,
        -1.935245907148463e-15,
        99.61946094086184,
        -8.715588102546779,
        0.0,
        0.0,
        0.0,
        -364.3000183105469,
        1.0
      ],
      "name": "Flanged_Mace_01_LR"
    },
    {
      "mesh": 0,
      "name": "Flanged_Mace_01_LR_Base_0"
    }
  ],
  "samplers": [
    {
      "magFilter": 9729,
      "minFilter": 9987,
      "wrapS": 10497,
      "wrapT": 10497
    }
  ],
  "scene": 0,
  "scenes": [
    {
      "name": "Sketchfab_Scene",
      "nodes": [
        0
      ]
    }
  ],
  "textures": [
    {
      "sampler": 0,
      "source": 0
    },
    {
      "sampler": 0,
      "source": 1
    },
    {
      "sampler": 0,
      "source": 2
    }
  ]
}
